<svg id="Layer_1" data-name="Layer 1" xmlns="http://www.w3.org/2000/svg" viewBox="0 0 101.28 122.88"><defs><style>.cls-1{fill-rule:evenodd;}</style></defs><title>management</title><path fill="#3c8dbc" class="cls-1" d="M33.12,71.64a17.45,17.45,0,0,1,.73-5H67.42a17.52,17.52,0,1,1-34.3,5ZM43.25,38.58c-1.72-1.53-3.08-2.64-3.37-5.82h-.19a2.45,2.45,0,0,1-1.22-.32,3.28,3.28,0,0,1-1.34-1.63c-.62-1.43-1.11-5.17.45-6.25l-.29-.19,0-.42c-.06-.75-.07-1.66-.09-2.62,0-3.52-.13-7.79-3-8.65L33,12.31l.8-1a46.66,46.66,0,0,1,7.1-7.2,18.18,18.18,0,0,1,8.22-4,9.9,9.9,0,0,1,8,2.24,15,15,0,0,1,2.14,2.15,9.07,9.07,0,0,1,6.4,3.74,13,13,0,0,1,2.08,4.21,14.42,14.42,0,0,1,.56,4.76A11.46,11.46,0,0,1,65,25a2.42,2.42,0,0,1,1,.26c1.18.63,1.22,2,.91,3.16-.31,1-.7,2.08-1.07,3-.45,1.27-1.1,1.51-2.36,1.37-.07,3.13-1.51,4-3.46,5.83.08,4.71-16.86,4.16-16.76,0Zm-.88,3.88L47.42,55.7,50,48.48l-1.24-1.35c-.94-1.37-.62-2.92,1.12-3.2a12.85,12.85,0,0,1,1.87,0,9.41,9.41,0,0,1,2.06.08c1.61.35,1.78,1.91,1,3.15l-1.25,1.35L56,55.7l4.56-13.24c3.29,3,13,3.56,16.65,5.58,5,2.81,4.88,8.24,6,13.27H19.74c1.09-5,1-10.5,6-13.27,4.46-2.48,13-2.29,16.65-5.58ZM11.51,39c-.86-1.36-2.45-3.2-2.45-4.79a2.57,2.57,0,0,1,1.72-2.33c-.08-1.34-.14-2.7-.14-4.05,0-.8,0-1.61,0-2.4A8.37,8.37,0,0,1,11,24a8.49,8.49,0,0,1,3.81-4.83,10.28,10.28,0,0,1,2.06-1c1.31-.48.68-2.68,2.11-2.71,3.35-.09,8.86,3,11,5.31a8.52,8.52,0,0,1,2.2,5.51L32,32.15a1.92,1.92,0,0,1,1.41,1.2c.46,1.86-1.46,4.16-2.36,5.64-.37.61-1.21,1.84-2,3a23.09,23.09,0,0,0-5.28,1.87L23.5,44c-6,3.32-6.89,8.48-7.78,13.71-.13.77-.26,1.54-.45,2.41a4.68,4.68,0,0,0-.15,1.19H0c0-13.38,10.22-9.13,15.1-15.85.24-.35.35-.54.35-.7S11.83,39.55,11.51,39Zm78.26,0c.85-1.36,2.45-3.2,2.45-4.79a2.57,2.57,0,0,0-1.72-2.33c.08-1.34.13-2.7.13-4.05,0-.8,0-1.61,0-2.4A9.39,9.39,0,0,0,90.32,24a8.57,8.57,0,0,0-3.81-4.83,10.63,10.63,0,0,0-2.07-1c-1.31-.48-.67-2.68-2.11-2.71-3.35-.09-8.86,3-11,5.31a8.45,8.45,0,0,0-2.19,5.51l.13,5.87a1.94,1.94,0,0,0-1.41,1.2c-.45,1.86,1.47,4.16,2.36,5.64.33.54,1,1.58,1.76,2.62A29.87,29.87,0,0,1,79.48,44h0c6,3.35,6.85,8.43,7.74,13.66.14.84.28,1.69.49,2.65a4.75,4.75,0,0,1,.11,1h13.44c0-13.38-10.22-9.13-15.11-15.85-.24-.35-.35-.54-.35-.7s3.63-5.21,4-5.72ZM101.22,72.3V76A6.26,6.26,0,0,1,95,82.21h-6.4a38.82,38.82,0,0,1-3.84,10.17L89,96.64a6.28,6.28,0,0,1,0,8.83l-5.19,5.19a6.26,6.26,0,0,1-8.83,0l-3.89-3.89a39.06,39.06,0,0,1-10.54,4.57v5.3a6.26,6.26,0,0,1-6.24,6.24H47a6.26,6.26,0,0,1-6.24-6.24v-5.23a38.6,38.6,0,0,1-10.65-4.53l-3.79,3.78a6.25,6.25,0,0,1-8.82,0l-5.2-5.19a6.28,6.28,0,0,1,0-8.83l4.09-4.08a39,39,0,0,1-3.95-10.35H6.3A6.26,6.26,0,0,1,.06,76V68.63a6.22,6.22,0,0,1,.34-2H25.77a25.53,25.53,0,0,0-.38,4.4c0,.44,0,.87,0,1.3s0,.87,0,1.3a25.11,25.11,0,0,0,50.22,0c0-.43,0-.87,0-1.3s0-.86,0-1.3a25.53,25.53,0,0,0-.38-4.4h25.64a6,6,0,0,1,.35,2V72.3Z"/></svg>